# xmcd CD database file
#
# Track frame offsets:
#	150
#	14032
#	29222
#	43312
#	60517
#	74470
#	90430
#	109177
#	123512
#	140462
#	153335
#	171345
#	184830
#	200965
#
# Disc length: 2854 seconds
#
# Revision: 0
# Processed by: cddbd v1.5.2PL0 Copyright (c) Steve Scherf et al.
# Submitted via: CDex 1.51
#
DISCID=d70b240e
DTITLE=Hasse Thor - Små nära ting
DYEAR=2006
DGENRE=Country Rock
TTITLE0=Små nära ting
TTITLE1=Hundar, ungar och hembryggt äppelvin
TTITLE2=Ett litet rött paket
TTITLE3=Orgeln på vinden
TTITLE4=En liten tussilagosol
TTITLE5=Ett årstiders band
TTITLE6=När du vaknar finns hon inte där
TTITLE7=Linnea
TTITLE8=Som det en gång var
TTITLE9=Nånstans ikväll
TTITLE10=Ekrar i samma hjul
TTITLE11=Den gamla spinnrocken
TTITLE12=Trönderbrura
TTITLE13=Den enda för mej det är du
EXTD=YEAR: 2006
EXTT0=
EXTT1=
EXTT2=
EXTT3=
EXTT4=
EXTT5=
EXTT6=
EXTT7=
EXTT8=
EXTT9=
EXTT10=
EXTT11=
EXTT12=
EXTT13=
PLAYORDER=
